<?xml version="1.0" encoding="UTF-8"?>
<svg width="112px" height="24px" viewBox="0 0 112 24" version="1.1" xmlns="http://www.w3.org/2000/svg" xmlns:xlink="http://www.w3.org/1999/xlink">
    <!-- Generator: sketchtool 54.1 (76490) - https://sketchapp.com -->
    <title>0915EA4D-DFC5-4FB8-BCD4-AC5FE51B6BE7</title>
    <desc>Created with sketchtool.</desc>
    <g id="Component" stroke="none" stroke-width="1" fill="none" fill-rule="evenodd">
        <g id="#-Components---Icon" transform="translate(-160.000000, -2141.000000)" fill="#FFFFFF">
            <g id="128x60" transform="translate(160.000000, 2083.000000)">
                <g id="logo" transform="translate(0.000000, 58.000000)">
                    <g id="Group-6">
                        <path d="M68.196352,11.2666667 L75.358976,11.2666667 L75.358976,12.7938333 L72.624384,12.7938333 L72.624384,20.25 L70.930944,20.25 L70.930944,12.7938333 L68.196352,12.7938333 L68.196352,11.2666667 Z M77.312704,14.706 C77.5384971,14.2611089 77.8458221,13.921029 78.234688,13.68575 C78.6235539,13.450471 79.0772241,13.3285556 79.595712,13.32 L79.595712,14.937 C78.9016072,14.894222 78.3475861,15.0589148 77.933632,15.4310833 C77.5196779,15.8032519 77.312704,16.3058857 77.312704,16.939 L77.312704,20.25 L75.681984,20.25 L75.681984,13.3841667 L77.312704,13.3841667 L77.312704,14.706 Z M84.070784,20.25 L84.070784,19.4158333 C83.8366282,19.7152793 83.5355752,19.9419992 83.167616,20.096 C82.7996568,20.2500008 82.3773464,20.327 81.900672,20.327 C81.4323603,20.327 81.0205031,20.2350287 80.665088,20.0510833 C80.3096729,19.867138 80.0357983,19.6126127 79.843456,19.2875 C79.6511137,18.9623873 79.554944,18.5987798 79.554944,18.1966667 C79.554944,17.5549968 79.7765525,17.0523629 80.219776,16.68875 C80.6629995,16.3251371 81.2901933,16.1390556 82.101376,16.1305 L84.05824,16.1305 L84.05824,15.9508333 C84.05824,15.5487202 83.92862,15.2364456 83.669376,15.014 C83.410132,14.7915544 83.0338158,14.6803333 82.540416,14.6803333 C81.9048502,14.6803333 81.2400248,14.8942201 80.54592,15.322 L79.956352,14.167 C80.4832026,13.8675541 80.9619605,13.6515284 81.39264,13.5189167 C81.8233195,13.3863049 82.3271651,13.32 82.904192,13.32 C83.7739137,13.32 84.4491923,13.5338868 84.930048,13.9616667 C85.4109037,14.3894466 85.6555093,14.9883295 85.663872,15.7583333 L85.676416,20.25 L84.070784,20.25 Z M82.289536,19.0436667 C82.7578477,19.0436667 83.1592517,18.9303067 83.49376,18.7035833 C83.8282683,18.47686 84.0164265,18.1966683 84.05824,17.863 L84.05824,17.247 L82.3648,17.247 C81.9299392,17.247 81.6100704,17.3133049 81.405184,17.4459167 C81.2002976,17.5785284 81.097856,17.7945541 81.097856,18.094 C81.097856,18.3848903 81.2044789,18.615888 81.417728,18.787 C81.6309771,18.958112 81.9215768,19.0436667 82.289536,19.0436667 Z M91.732032,15.553 C91.2804457,15.0482197 90.6950649,14.7958333 89.975872,14.7958333 C89.4322959,14.7958333 88.9911697,14.9840537 88.65248,15.3605 C88.3137903,15.7369463 88.144448,16.2246081 88.144448,16.8235 C88.144448,17.4395031 88.3137903,17.9357203 88.65248,18.3121667 C88.9911697,18.688613 89.4322959,18.8768333 89.975872,18.8768333 C90.778692,18.8768333 91.380798,18.607336 91.782208,18.0683333 L92.798272,18.9281667 C92.4972145,19.3730578 92.0999918,19.7152766 91.606592,19.9548333 C91.1131922,20.1943901 90.5403553,20.3141667 89.888064,20.3141667 C89.22741,20.3141667 88.6399386,20.1687237 88.125632,19.8778333 C87.6113254,19.586943 87.2120121,19.1784193 86.92768,18.65225 C86.6433479,18.1260807 86.501184,17.5207812 86.501184,16.8363333 C86.501184,16.1433299 86.6454386,15.5316138 86.933952,15.0011667 C87.2224654,14.4707196 87.6238694,14.060057 88.138176,13.7691667 C88.6524826,13.4782763 89.2441353,13.3328333 89.913152,13.3328333 C90.5236297,13.3328333 91.0692883,13.4419156 91.550144,13.6600833 C92.0309997,13.8782511 92.4219505,14.1883869 92.723008,14.5905 L91.732032,15.553 Z M98.339584,20.25 L96.520704,17.247 L95.492096,18.3506667 L95.492096,20.25 L93.861376,20.25 L93.861376,10.7276667 L95.492096,10.7276667 L95.492096,16.246 L98.251776,13.397 L100.133376,13.397 L97.649664,16.0406667 L100.283904,20.25 L98.339584,20.25 Z M103.466944,13.3328333 C104.537371,13.3328333 105.342269,13.645108 105.881664,14.2696667 C106.421059,14.8942253 106.690752,15.771161 106.690752,16.9005 C106.690752,17.1229456 106.686571,17.2897772 106.678208,17.401 L101.723328,17.401 C101.832043,17.8886691 102.055742,18.2715264 102.394432,18.5495833 C102.733122,18.8276403 103.14916,18.9666667 103.64256,18.9666667 C103.985431,18.9666667 104.313662,18.9003618 104.627264,18.76775 C104.940866,18.6351382 105.21474,18.444779 105.448896,18.1966667 L106.326976,19.1335 C105.992468,19.5099463 105.584792,19.8008323 105.103936,20.0061667 C104.62308,20.211501 104.089966,20.3141667 103.504576,20.3141667 C102.818834,20.3141667 102.214637,20.1687237 101.691968,19.8778333 C101.169299,19.586943 100.765804,19.1784193 100.481472,18.65225 C100.19714,18.1260807 100.054976,17.5207812 100.054976,16.8363333 C100.054976,16.1518855 100.199231,15.5444471 100.487744,15.014 C100.776257,14.4835529 101.179752,14.0707515 101.69824,13.7755833 C102.216728,13.4804152 102.80629,13.3328333 103.466944,13.3328333 Z M105.198016,16.2845 C105.181291,15.7797197 105.01822,15.3776126 104.7088,15.0781667 C104.39938,14.7787207 103.989613,14.629 103.479488,14.629 C103.002814,14.629 102.6035,14.7765819 102.281536,15.07175 C101.959572,15.3669181 101.76096,15.7711641 101.685696,16.2845 L105.198016,16.2845 Z M109.3344,14.706 C109.560193,14.2611089 109.867518,13.921029 110.256384,13.68575 C110.64525,13.450471 111.09892,13.3285556 111.617408,13.32 L111.617408,14.937 C110.923303,14.894222 110.369282,15.0589148 109.955328,15.4310833 C109.541374,15.8032519 109.3344,16.3058857 109.3344,16.939 L109.3344,20.25 L107.70368,20.25 L107.70368,13.3841667 L109.3344,13.3841667 L109.3344,14.706 Z" id="Tracker"></path>
                        <path d="M46.811792,11.2786269 L46.811792,20.0129394 C46.8111701,20.0371042 46.8203841,20.0605032 46.8373642,20.0778805 C46.8543443,20.0952579 46.877667,20.1051569 46.9020937,20.1053539 L49.9491981,20.1053539 C49.9996223,20.1041029 50.0395916,20.0628459 50.038728,20.0129394 L50.038728,11.2511317 C50.0147789,10.0312755 50.4834066,8.85233136 51.3407748,7.97552382 C52.198143,7.09871627 53.3734572,6.59644495 54.6062973,6.58000063 C57.0842837,6.66498892 59.0381217,8.69621483 59.0017531,11.1495522 L59.0017531,20.0091207 C59.0011321,20.0331546 59.0102409,20.0564379 59.0270542,20.0737928 C59.0438674,20.0911477 59.066991,20.1011355 59.091283,20.1015351 L62.1391592,20.1015351 C62.163316,20.1009351 62.1862416,20.0908596 62.2028886,20.0735268 C62.2195356,20.056194 62.2285393,20.033025 62.2279173,20.0091207 L62.2279173,11.1495522 C62.2593831,9.07350337 61.4468755,7.07194509 59.9728498,5.59434414 C58.4988241,4.11674318 56.4868189,3.28693777 54.388647,3.29126771 C50.0901743,3.47585016 46.7264248,7.02184323 46.811792,11.2786269 Z M0.790327943,20.8645273 C0.703418847,20.8596056 0.622050977,20.8206999 0.564145398,20.7563792 C0.506239819,20.6920584 0.47654606,20.6075983 0.481604095,20.5216009 L0.481604095,7.86616557 C0.476336845,7.78011778 0.50595768,7.69554313 0.563905328,7.63117564 C0.621852977,7.56680816 0.703344185,7.527961 0.790327943,7.52323917 L3.2662932,7.52323917 C3.35327696,7.527961 3.43476817,7.56680816 3.49271582,7.63117564 C3.55066347,7.69554313 3.5802843,7.78011778 3.57501705,7.86616557 L3.57501705,20.5216009 C3.58007509,20.6075983 3.55038133,20.6920584 3.49247575,20.7563792 C3.43457017,20.8206999 3.3532023,20.8596056 3.2662932,20.8645273 L0.790327943,20.8645273 Z M3.05913351,5.94380541 C2.23633146,6.28685076 1.28566295,6.10465541 0.651775647,5.48243596 C0.0178883422,4.86021651 -0.173911684,3.92097254 0.166084477,3.10400822 C0.506080638,2.2870439 1.31066296,1.75385575 2.20351136,1.75382708 C2.78559865,1.75139147 3.34481133,1.97793079 3.75807415,2.38358675 C4.17133697,2.78924272 4.40478082,3.34076963 4.40702782,3.91678379 C4.41422065,4.80028678 3.88193556,5.60076005 3.05913351,5.94380541 Z M21.2455983,6.57541809 C21.295722,6.575003 21.3362524,6.53489561 21.3366718,6.4852949 L21.3366718,3.37680837 C21.3371027,3.3264847 21.2964474,3.28523086 21.2455983,3.28439391 L15.9841721,3.28439391 C11.3346475,3.27781949 7.5328604,6.95068449 7.42789067,11.550524 C7.37860747,13.7950522 8.24234692,15.9651272 9.82518144,17.5735218 C11.408016,19.1819165 13.5773124,20.0938557 15.8460182,20.1045902 L21.2486855,20.1045902 C21.2995347,20.1037532 21.3401899,20.0624994 21.3397591,20.0121757 L21.3397591,16.9059804 C21.3399646,16.8818755 21.3304847,16.8586771 21.3134049,16.841489 C21.2963251,16.824301 21.2730447,16.8145314 21.2486855,16.8143297 L15.8460182,16.8143297 C14.4555231,16.807628 13.1268489,16.2448276 12.1620947,15.253892 C11.1973405,14.2629564 10.6784914,12.9280955 10.7235178,11.5528153 C10.8246995,8.77003149 13.1385957,6.56849079 15.9525279,6.57770936 L21.2455983,6.57541809 Z M43.0984309,5.17715028 C41.9434614,5.14995135 41.0251562,4.20903491 41.0378802,3.06586306 C41.0506042,1.9226912 41.9896297,1.00201851 43.1449245,1 C43.715572,1.00903208 44.259126,1.24242725 44.6556022,1.64866578 C45.0520783,2.05490432 45.268876,2.60058281 45.2581392,3.16524799 C45.2158962,4.30772468 44.2534004,5.20434922 43.0984309,5.17715028 Z M25.7209929,22.9994148 C24.565097,22.9725944 23.6461033,22.0305808 23.6597224,20.8865115 C23.6733414,19.7424422 24.6145045,18.8221124 25.7707181,18.822244 C26.9560976,18.8439862 27.8998597,19.8113886 27.8800738,20.984437 C27.8394901,22.1278806 26.8768887,23.0262352 25.7209929,22.9994148 Z M29.4784915,15.4036726 C28.8438801,14.4074686 28.5077475,13.253609 28.5090986,12.0759881 C28.4544568,8.76686427 31.1159028,6.03788595 34.4597508,5.9743422 C35.6165066,5.97578405 36.74604,6.3217533 37.7013512,6.96722487 L39.9990284,4.61180167 C38.423846,3.36712626 36.4685563,2.6880581 34.4528045,2.68560928 C29.3023304,2.77716381 25.2020356,6.98307636 25.2945116,12.0798069 C25.2909175,14.124283 25.9501846,16.1159796 27.1754116,17.7621508 L29.4784915,15.4036726 Z M39.4394665,8.74753988 C40.0750752,9.74362249 40.4115329,10.8979439 40.4096312,12.0759881 C40.4642424,15.3871948 37.798835,18.1167187 34.4528045,18.1761065 C33.2960777,18.1744758 32.1665993,17.8285234 31.2112041,17.1832238 L28.9142987,19.538647 C30.4869295,20.7830102 32.4392487,21.4633377 34.4528045,21.4686582 C36.9264205,21.4250925 39.2812119,20.4108279 40.999055,18.6490325 C42.7168982,16.8872371 43.657047,14.522258 43.6126411,12.0744606 C43.6171275,10.0297375 42.9586745,8.0375129 41.7340565,6.39058916 L39.4394665,8.74753988 Z" id="logo"></path>
                    </g>
                </g>
            </g>
        </g>
    </g>
</svg>