<svg width="384" height="68" viewBox="0 0 384 68" fill="none" xmlns="http://www.w3.org/2000/svg">
<path fill-rule="evenodd" clip-rule="evenodd" d="M218.678 51.8569C218.678 52.9186 217.797 53.7972 216.732 53.7972H212.875C211.809 53.7972 210.928 52.9186 210.928 51.8569V34.5401C210.928 28.1699 205.748 23.0078 199.357 23.0078C192.965 23.0078 187.786 28.1699 187.786 34.5401V51.8569C187.786 52.9186 186.904 53.7972 185.839 53.7972H181.982C180.917 53.7972 180.035 52.9186 180.035 51.8569V34.5401C180.035 23.9231 188.667 15.3196 199.32 15.3196C209.973 15.3196 218.605 23.9231 218.605 34.5401V51.8569H218.678Z" fill="white"/>
<path fill-rule="evenodd" clip-rule="evenodd" d="M116.78 23.0078C110.389 23.0078 105.209 28.1699 105.209 34.5401C105.209 40.9104 110.389 46.0724 116.78 46.0724H126.441C127.506 46.0724 128.388 46.9511 128.388 48.0128V51.8569C128.388 52.9186 127.506 53.7973 126.441 53.7973H116.78C106.128 53.7973 97.4952 45.1938 97.4952 34.5767C97.4952 23.9597 106.128 15.3562 116.78 15.3562H126.441C127.506 15.3562 128.388 16.2349 128.388 17.2966V21.1407C128.388 22.2024 127.506 23.081 126.441 23.081H116.78V23.0078Z" fill="white"/>
<path fill-rule="evenodd" clip-rule="evenodd" d="M89.7811 17.2592C89.7811 16.1975 88.8995 15.3188 87.8342 15.3188H83.9772C82.9119 15.3188 82.0303 16.1975 82.0303 17.2592V51.8562C82.0303 52.9179 82.9119 53.7965 83.9772 53.7965H87.8342C88.8995 53.7965 89.7811 52.9179 89.7811 51.8562V17.2592Z" fill="white"/>
<path d="M153.073 15.1365C142.273 15.1365 133.494 23.8864 133.494 34.6499C133.494 45.4134 142.273 54.1633 153.073 54.1633C163.872 54.1633 172.652 45.4134 172.652 34.6499C172.652 23.8864 163.872 15.1365 153.073 15.1365ZM154.322 46.8412C146.534 47.61 140.032 41.13 140.804 33.3685C141.392 27.6207 146.02 22.9711 151.787 22.422C159.574 21.6531 166.076 28.1332 165.305 35.8946C164.754 41.6425 160.089 46.2554 154.322 46.8412Z" fill="white"/>
<g clip-path="url(#clip0_141_96)">
<path d="M5.54401 67.7155C8.58931 67.7155 11.088 65.1782 11.088 62.0858C11.088 58.9934 8.58931 56.4561 5.54401 56.4561C2.49871 56.4561 0 58.9934 0 62.0858C0 65.1782 2.49871 67.7155 5.54401 67.7155Z" fill="url(#paint0_linear_141_96)"/>
<path d="M61.3745 11.2594C64.4198 11.2594 66.9185 8.72209 66.9185 5.62971C66.9185 2.53734 64.4198 0 61.3745 0C58.3292 0 55.8305 2.53734 55.8305 5.62971C55.7524 8.72209 58.2511 11.2594 61.3745 11.2594Z" fill="url(#paint1_linear_141_96)"/>
<path d="M17.4129 43.9279C17.6471 43.69 17.7252 43.2935 17.569 42.9764C15.9293 39.884 15.2265 36.2366 15.5388 32.4306C16.3978 23.7085 23.3473 16.7308 31.9366 15.8586C35.6847 15.4621 39.1985 16.2551 42.3219 17.8409C42.6342 17.9995 43.0246 17.9202 43.2589 17.6823L49.1152 11.7354C49.4276 11.4183 49.4276 10.7839 48.9591 10.5461C44.5082 7.77084 39.3546 6.10571 33.8106 6.10571C18.3499 6.10571 5.93443 18.7131 5.93443 34.3336C5.93443 39.9633 7.57421 45.2758 10.4633 49.7162C10.6976 50.1126 11.3223 50.1919 11.6346 49.7955L17.4129 43.9279Z" fill="url(#paint2_linear_141_96)"/>
<path d="M49.6618 23.7883C49.4275 24.0262 49.3495 24.4227 49.5837 24.7398C51.5358 28.0701 52.5509 31.9554 52.0824 36.2371C51.2235 44.9592 44.274 51.9369 35.6846 52.8091C31.5462 53.2056 27.6419 52.2541 24.3624 50.2718C24.05 50.1132 23.6596 50.1132 23.4254 50.3511L17.7252 56.1394C17.4128 56.4565 17.4128 57.0909 17.8033 57.3287C22.3322 60.5797 27.8762 62.4034 33.8106 62.4034C49.1933 62.562 61.6868 49.8753 61.6868 34.3341C61.6868 28.308 59.8128 22.6782 56.6113 18.0793C56.299 17.6829 55.7524 17.6829 55.4401 18L49.6618 23.7883Z" fill="url(#paint3_linear_141_96)"/>
</g>
<path d="M243.075 32.2277V29.5356H257.219V32.2277H251.74V47.2639H248.554V32.2277H243.075ZM264.334 47.2639V29.5356H270.982C272.344 29.5356 273.487 29.7722 274.41 30.2454C275.339 30.7186 276.04 31.3823 276.513 32.2364C276.992 33.0847 277.232 34.0744 277.232 35.2055C277.232 36.3424 276.99 37.3292 276.505 38.166C276.026 38.997 275.319 39.6405 274.384 40.0964C273.449 40.5465 272.301 40.7716 270.939 40.7716H266.204V38.1054H270.506C271.302 38.1054 271.954 37.9958 272.462 37.7765C272.97 37.5514 273.345 37.2254 273.588 36.7983C273.836 36.3655 273.96 35.8346 273.96 35.2055C273.96 34.5765 273.836 34.0398 273.588 33.5954C273.339 33.1453 272.961 32.8048 272.454 32.574C271.946 32.3374 271.291 32.2191 270.489 32.2191H267.545V47.2639H264.334ZM273.492 39.2308L277.881 47.2639H274.297L269.987 39.2308H273.492ZM286.853 47.2639H283.425L289.666 29.5356H293.63L299.88 47.2639H296.452L291.717 33.1713H291.579L286.853 47.2639ZM286.965 40.3128H296.314V42.8924H286.965V40.3128ZM320.945 35.5172H317.707C317.615 34.9862 317.445 34.5159 317.196 34.1062C316.948 33.6907 316.64 33.3386 316.27 33.0501C315.901 32.7615 315.48 32.5451 315.006 32.4009C314.539 32.2508 314.034 32.1758 313.492 32.1758C312.528 32.1758 311.674 32.4182 310.929 32.9029C310.185 33.3819 309.602 34.086 309.181 35.0151C308.759 35.9384 308.549 37.0667 308.549 38.3998C308.549 39.7559 308.759 40.8986 309.181 41.8277C309.608 42.751 310.191 43.4493 310.929 43.9225C311.674 44.39 312.525 44.6237 313.483 44.6237C314.014 44.6237 314.51 44.5545 314.972 44.416C315.439 44.2717 315.858 44.061 316.227 43.784C316.602 43.507 316.917 43.1665 317.171 42.7626C317.43 42.3586 317.609 41.8969 317.707 41.3776L320.945 41.3949C320.824 42.2374 320.561 43.028 320.157 43.7667C319.759 44.5054 319.237 45.1575 318.59 45.7231C317.944 46.2829 317.188 46.7214 316.322 47.0388C315.457 47.3505 314.496 47.5063 313.44 47.5063C311.881 47.5063 310.491 47.1456 309.267 46.4242C308.044 45.7029 307.08 44.6612 306.376 43.2993C305.672 41.9373 305.32 40.3042 305.32 38.3998C305.32 36.4896 305.675 34.8564 306.385 33.5002C307.094 32.1383 308.061 31.0966 309.285 30.3753C310.508 29.6539 311.893 29.2932 313.44 29.2932C314.426 29.2932 315.344 29.4317 316.192 29.7087C317.041 29.9857 317.797 30.3926 318.46 30.9293C319.124 31.4602 319.669 32.1123 320.096 32.8856C320.529 33.6532 320.812 34.5303 320.945 35.5172ZM328.273 47.2639V29.5356H331.485V37.6813H331.701L338.618 29.5356H342.539L335.683 37.4908L342.6 47.2639H338.739L333.45 39.6636L331.485 41.9835V47.2639H328.273ZM349.158 47.2639V29.5356H360.689V32.2277H352.37V37.0407H360.091V39.7328H352.37V44.5718H360.758V47.2639H349.158ZM368.353 47.2639V29.5356H375.001C376.363 29.5356 377.505 29.7722 378.429 30.2454C379.358 30.7186 380.059 31.3823 380.532 32.2364C381.011 33.0847 381.251 34.0744 381.251 35.2055C381.251 36.3424 381.008 37.3292 380.524 38.166C380.045 38.997 379.338 39.6405 378.403 40.0964C377.468 40.5465 376.32 40.7716 374.958 40.7716H370.223V38.1054H374.525C375.321 38.1054 375.973 37.9958 376.481 37.7765C376.989 37.5514 377.364 37.2254 377.606 36.7983C377.855 36.3655 377.979 35.8346 377.979 35.2055C377.979 34.5765 377.855 34.0398 377.606 33.5954C377.358 33.1453 376.98 32.8048 376.472 32.574C375.965 32.3374 375.31 32.2191 374.507 32.2191H371.564V47.2639H368.353ZM377.511 39.2308L381.9 47.2639H378.316L374.005 39.2308H377.511Z" fill="#B8FBFF"/>
<defs>
<linearGradient id="paint0_linear_141_96" x1="5.54401" y1="56.4561" x2="5.54401" y2="67.7155" gradientUnits="userSpaceOnUse">
<stop stop-color="#B8FBFF"/>
<stop offset="1" stop-color="#B8FBFF"/>
</linearGradient>
<linearGradient id="paint1_linear_141_96" x1="61.3736" y1="0" x2="61.3736" y2="11.2594" gradientUnits="userSpaceOnUse">
<stop stop-color="#B8FBFF"/>
<stop offset="1" stop-color="#B8FBFF"/>
</linearGradient>
<linearGradient id="paint2_linear_141_96" x1="27.6337" y1="6.10571" x2="27.6337" y2="50.0561" gradientUnits="userSpaceOnUse">
<stop stop-color="#B8FBFF"/>
<stop offset="1" stop-color="#B8FBFF"/>
</linearGradient>
<linearGradient id="paint3_linear_141_96" x1="39.5934" y1="17.7712" x2="39.5934" y2="62.4049" gradientUnits="userSpaceOnUse">
<stop stop-color="#B8FBFF"/>
<stop offset="1" stop-color="#B8FBFF"/>
</linearGradient>
<clipPath id="clip0_141_96">
<rect width="66.9185" height="67.7152" fill="white"/>
</clipPath>
</defs>
</svg>
