<?xml version="1.0" encoding="UTF-8"?>
<svg width="128px" height="60px" viewBox="0 0 128 60" version="1.1" xmlns="http://www.w3.org/2000/svg" xmlns:xlink="http://www.w3.org/1999/xlink">
    <!-- Generator: Sketch 50.2 (55047) - http://www.bohemiancoding.com/sketch -->
    <title>logo-icon</title>
    <desc>Created with Sketch.</desc>
    <defs></defs>
    <g id="Tracker" stroke="none" stroke-width="1" fill="none" fill-rule="evenodd">
        <g id="Transactions-" transform="translate(-50.000000, 0.000000)" fill="#FFFFFF">
            <g id="GNB">
                <g id="logo" transform="translate(50.000000, 0.000000)">
                    <path d="M77.112,30.2 L85.106,30.2 L85.106,31.866 L82.054,31.866 L82.054,40 L80.164,40 L80.164,31.866 L77.112,31.866 L77.112,30.2 Z M87.2865,33.952 C87.5385013,33.4666642 87.8814978,33.095668 88.3155,32.839 C88.7495022,32.5823321 89.2558304,32.4493334 89.8345,32.44 L89.8345,34.204 C89.0598295,34.1573331 88.4415023,34.336998 87.9795,34.743 C87.5174977,35.149002 87.2865,35.6973299 87.2865,36.388 L87.2865,40 L85.4665,40 L85.4665,32.51 L87.2865,32.51 L87.2865,33.952 Z M94.829,40 L94.829,39.09 C94.5676654,39.4166683 94.2316687,39.6639992 93.821,39.832 C93.4103313,40.0000008 92.9390027,40.084 92.407,40.084 C91.8843307,40.084 91.4246687,39.9836677 91.028,39.783 C90.6313314,39.5823323 90.3256677,39.3046684 90.111,38.95 C89.8963323,38.5953316 89.789,38.1986689 89.789,37.76 C89.789,37.0599965 90.0363309,36.5116687 90.531,36.115 C91.0256691,35.7183314 91.7256621,35.5153334 92.631,35.506 L94.815,35.506 L94.815,35.31 C94.815,34.8713311 94.6703348,34.5306679 94.381,34.288 C94.0916652,34.0453321 93.6716694,33.924 93.121,33.924 C92.4116631,33.924 91.6696705,34.157331 90.895,34.624 L90.237,33.364 C90.8250029,33.0373317 91.3593309,32.8016674 91.84,32.657 C92.3206691,32.5123326 92.8829968,32.44 93.527,32.44 C94.4976715,32.44 95.2513307,32.673331 95.788,33.14 C96.3246694,33.606669 96.5976666,34.2599958 96.607,35.1 L96.621,40 L94.829,40 Z M92.841,38.684 C93.3636693,38.684 93.8116648,38.5603346 94.185,38.313 C94.5583352,38.0656654 94.7683331,37.7600018 94.815,37.396 L94.815,36.724 L92.925,36.724 C92.4396642,36.724 92.0826678,36.7963326 91.854,36.941 C91.6253322,37.0856674 91.511,37.3213317 91.511,37.648 C91.511,37.9653349 91.6299988,38.2173324 91.868,38.404 C92.1060012,38.5906676 92.4303313,38.684 92.841,38.684 Z M103.3795,34.876 C102.875497,34.3253306 102.222171,34.05 101.4195,34.05 C100.81283,34.05 100.320502,34.2553313 99.9425,34.666 C99.5644981,35.0766687 99.3755,35.6086634 99.3755,36.262 C99.3755,36.9340034 99.5644981,37.4753313 99.9425,37.886 C100.320502,38.2966687 100.81283,38.502 101.4195,38.502 C102.315504,38.502 102.987498,38.2080029 103.4355,37.62 L104.5695,38.558 C104.233498,39.0433358 103.790169,39.4166654 103.2395,39.678 C102.688831,39.9393346 102.049504,40.07 101.3215,40.07 C100.584163,40.07 99.9285029,39.9113349 99.3545,39.594 C98.7804971,39.2766651 98.3348349,38.8310029 98.0175,38.257 C97.7001651,37.6829971 97.5415,37.0226704 97.5415,36.276 C97.5415,35.5199962 97.7024984,34.8526696 98.0245,34.274 C98.3465016,33.6953304 98.7944971,33.2473349 99.3685,32.93 C99.9425029,32.6126651 100.60283,32.454 101.3495,32.454 C102.030837,32.454 102.639831,32.5729988 103.1765,32.811 C103.713169,33.0490012 104.149498,33.3873311 104.4855,33.826 L103.3795,34.876 Z M110.754,40 L108.724,36.724 L107.576,37.928 L107.576,40 L105.756,40 L105.756,29.612 L107.576,29.612 L107.576,35.632 L110.656,32.524 L112.756,32.524 L109.984,35.408 L112.924,40 L110.754,40 Z M116.4765,32.454 C117.671173,32.454 118.569497,32.7946633 119.1715,33.476 C119.773503,34.1573367 120.0745,35.1139938 120.0745,36.346 C120.0745,36.5886679 120.069833,36.7706661 120.0605,36.892 L114.5305,36.892 C114.651834,37.4240027 114.901498,37.8416652 115.2795,38.145 C115.657502,38.4483349 116.121831,38.6 116.6725,38.6 C117.055169,38.6 117.421498,38.5276674 117.7715,38.383 C118.121502,38.2383326 118.427165,38.030668 118.6885,37.76 L119.6685,38.782 C119.295165,39.1926687 118.840169,39.5099989 118.3035,39.734 C117.766831,39.9580011 117.171837,40.07 116.5185,40.07 C115.753163,40.07 115.078836,39.9113349 114.4955,39.594 C113.912164,39.2766651 113.461835,38.8310029 113.1445,38.257 C112.827165,37.6829971 112.6685,37.0226704 112.6685,36.276 C112.6685,35.5293296 112.829498,34.8666696 113.1515,34.288 C113.473502,33.7093304 113.92383,33.2590016 114.5025,32.937 C115.08117,32.6149984 115.739163,32.454 116.4765,32.454 Z M118.4085,35.674 C118.389833,35.1233306 118.207835,34.6846683 117.8625,34.358 C117.517165,34.0313317 117.059836,33.868 116.4905,33.868 C115.958497,33.868 115.512835,34.0289984 115.1535,34.351 C114.794165,34.6730016 114.5725,35.1139972 114.4885,35.674 L118.4085,35.674 Z M123.025,33.952 C123.277001,33.4666642 123.619998,33.095668 124.054,32.839 C124.488002,32.5823321 124.99433,32.4493334 125.573,32.44 L125.573,34.204 C124.798329,34.1573331 124.180002,34.336998 123.718,34.743 C123.255998,35.149002 123.025,35.6973299 123.025,36.388 L123.025,40 L121.205,40 L121.205,32.51 L123.025,32.51 L123.025,33.952 Z" id="Tracker"></path>
                    <path d="M53.2453035,30.2130476 L53.2453035,39.7413885 C53.2446095,39.76775 53.2548929,39.7932762 53.2738439,39.8122333 C53.292795,39.8311905 53.3188248,39.8419893 53.3460867,39.8422043 L56.7468728,39.8422043 C56.8031499,39.8408395 56.8477584,39.7958319 56.8467946,39.7413885 L56.8467946,30.1830528 C56.8200658,28.8523006 57.3430877,27.5661797 58.2999718,26.6096623 C59.256856,25.653145 60.5685907,25.1052127 61.9445282,25.0872734 C64.710138,25.1799879 66.8907609,27.3958707 66.8501709,30.0722388 L66.8501709,39.7372225 C66.8494777,39.7634414 66.8596439,39.7888413 66.8784087,39.807774 C66.8971734,39.8267066 66.9229811,39.8376024 66.9500926,39.8380383 L70.3517402,39.8380383 C70.3787009,39.8373838 70.4042875,39.8263923 70.4228667,39.8074838 C70.441446,39.7885753 70.4514947,39.7633 70.4508006,39.7372225 L70.4508006,30.0722388 C70.4859187,27.8074582 69.5791021,25.6239401 67.9339841,24.0120118 C66.2888662,22.4000835 64.0433247,21.4948412 61.701615,21.4995648 C56.9042123,21.7009275 53.1500277,25.5692835 53.2453035,30.2130476 Z M1.88206244,40.6703934 C1.78506568,40.6650243 1.69425332,40.6225817 1.62962656,40.5524136 C1.5649998,40.4822455 1.53185944,40.3901072 1.53750457,40.2962919 L1.53750457,26.4903624 C1.53162594,26.3964921 1.56468491,26.3042289 1.62935863,26.2340098 C1.69403234,26.1637907 1.78498235,26.121412 1.88206244,26.1162609 L4.64541652,26.1162609 C4.74249661,26.121412 4.83344662,26.1637907 4.89812033,26.2340098 C4.96279405,26.3042289 4.99585301,26.3964921 4.98997439,26.4903624 L4.98997439,40.2962919 C4.99561952,40.3901072 4.96247916,40.4822455 4.8978524,40.5524136 C4.83322564,40.6225817 4.74241328,40.6650243 4.64541652,40.6703934 L1.88206244,40.6703934 Z M4.41421151,24.3932423 C3.49590565,24.7674736 2.43489169,24.568715 1.72742818,23.8899301 C1.01996467,23.2111453 0.805902138,22.1865155 1.18536214,21.2952817 C1.56482214,20.4040479 2.46279348,19.8223881 3.45927607,19.8223568 C4.10892707,19.8196998 4.73304836,20.0668336 5.19427919,20.5093674 C5.65551001,20.9519011 5.91605002,21.5535669 5.91855784,22.181946 C5.92658554,23.1457674 5.33251737,24.019011 4.41421151,24.3932423 Z M24.7116052,25.0822743 C24.7675469,25.0818215 24.8127817,25.0380679 24.8132498,24.9839581 L24.8132498,21.5928819 C24.8137307,21.5379833 24.7683565,21.4929791 24.7116052,21.4920661 L18.8394778,21.4920661 C13.6502762,21.484894 9.40721027,25.4916558 9.29005656,30.5096626 C9.23505298,32.9582387 10.1990479,35.3255933 11.9656043,37.0802056 C13.7321607,38.834818 16.1532504,39.8296608 18.6852882,39.8413711 L24.7150508,39.8413711 C24.7718021,39.840458 24.8171762,39.7954539 24.8166954,39.7405553 L24.8166954,36.3519787 C24.8169248,36.3256823 24.8063445,36.300375 24.7872823,36.2816244 C24.76822,36.2628738 24.7422374,36.2522161 24.7150508,36.2519961 L18.6852882,36.2519961 C17.1333964,36.244685 15.650501,35.630721 14.5737664,34.5497003 C13.4970318,33.4686797 12.9179592,32.0124678 12.9682118,30.5121622 C13.0811378,27.476398 15.6636113,25.0747172 18.8041606,25.0847738 L24.7116052,25.0822743 Z M49.1009273,23.5568912 C47.8118988,23.5272196 46.7870046,22.5007654 46.8012056,21.2536688 C46.8154065,20.0065722 47.863426,19.002202 49.1528175,19 C49.7897009,19.0098532 50.396346,19.2644661 50.8388417,19.7076354 C51.2813374,20.1508047 51.5232991,20.7460903 51.5113161,21.3620887 C51.4641699,22.6084269 50.3899558,23.5865628 49.1009273,23.5568912 Z M29.7064652,42.9993616 C28.4164029,42.9701029 27.3907403,41.9424518 27.4059402,40.6943762 C27.42114,39.4463006 28.4715452,38.4423044 29.7619622,38.442448 C31.0849303,38.4661667 32.1382363,39.5215149 32.1161538,40.801204 C32.0708594,42.048597 30.9965276,43.0286202 29.7064652,42.9993616 Z M33.9001021,34.7130974 C33.1918305,33.6263294 32.8166825,32.3675735 32.8181904,31.0828961 C32.7572063,27.4729428 35.72757,24.4958756 39.4595433,24.4265551 C40.7505654,24.428128 42.0112053,24.8055491 43.0774009,25.5096999 L45.6417728,22.9401473 C43.8837567,21.5823196 41.7015138,20.8415179 39.4517908,20.8388465 C33.7034937,20.9387242 29.1272719,25.5269924 29.2304817,31.0870621 C29.2264704,33.3173996 29.9622596,35.4901596 31.3297005,37.2859827 L33.9001021,34.7130974 Z M45.0172617,27.4518617 C45.7266464,28.5384973 46.1021572,29.797757 46.1000348,31.0828961 C46.1609848,34.6951216 43.1861997,37.6727841 39.4517908,37.7375707 C38.160801,37.7357918 36.9002224,37.3583891 35.8339332,36.654426 L33.2704226,39.2239786 C35.025591,40.5814656 37.2045187,41.3236411 39.4517908,41.3294453 C42.2125228,41.2819191 44.8406383,40.1754486 46.7578739,38.25349 C48.6751096,36.3315314 49.7243828,33.7515542 49.6748226,31.0812297 C49.6798298,28.8506227 48.9449492,26.6772868 47.578188,24.8806427 L45.0172617,27.4518617 Z"></path>
                </g>
            </g>
        </g>
    </g>
</svg>