<?xml version="1.0" encoding="utf-8"?>
<!-- Generator: Adobe Illustrator 21.0.0, SVG Export Plug-In . SVG Version: 6.00 Build 0)  -->
<svg version="1.1" id="Layer_1" xmlns="http://www.w3.org/2000/svg" xmlns:xlink="http://www.w3.org/1999/xlink" x="0px" y="0px"
	 viewBox="0 0 350 120" style="enable-background:new 0 0 350 120;" xml:space="preserve">
<style type="text/css">
	.st0{fill:#ffffff;}
</style>
<g id="Layer_1_1_">
	<path class="st0" d="M233.5,31.4l-13,13c2.8,4.6,4.4,9.9,4.4,15.7c0,16.6-13.4,30-30,30c-5.7,0-11.1-1.6-15.7-4.4l-13,13
		c8,5.9,17.9,9.5,28.6,9.5c26.5,0,48-21.5,48-48C243,49.3,239.5,39.4,233.5,31.4z"/>
	<path class="st0" d="M165,60c0-16.6,13.4-30,30-30c5.7,0,11.1,1.6,15.7,4.4l13-13c-8-5.9-17.9-9.5-28.6-9.5c-26.5,0-48,21.5-48,48
		c0,10.7,3.5,20.6,9.5,28.6l13-13C166.6,71.1,165,65.7,165,60z"/>
	<path class="st0" d="M20.5,106h-17c-0.3,0-0.5-0.2-0.5-0.5v-73C3,32.2,3.2,32,3.5,32h17c0.3,0,0.5,0.2,0.5,0.5v73
		C21,105.8,20.8,106,20.5,106z"/>
	<path class="st0" d="M306.3,14C282.7,14.4,264,34.1,264,57.7v47.8c0,0.3,0.2,0.5,0.5,0.5h17c0.3,0,0.5-0.2,0.5-0.5V57.6
		c0-14,11.5-25.8,25.5-25.6c13.6,0.3,24.5,11.3,24.5,25v48.5c0,0.3,0.2,0.5,0.5,0.5h17c0.3,0,0.5-0.2,0.5-0.5V57
		C350,33,330.3,13.6,306.3,14z"/>
	<circle class="st0" cx="12" cy="12" r="12"/>
	<circle class="st0" cx="243" cy="12" r="12"/>
	<circle class="st0" cx="147" cy="108" r="12"/>
	<path class="st0" d="M90.6,32h28.9c0.3,0,0.5-0.2,0.5-0.5v-17c0-0.3-0.2-0.5-0.5-0.5H90.8C65.6,14,44.5,34,44,59.2
		C43.6,85,64.3,106,90,106h29.5c0.3,0,0.5-0.2,0.5-0.5v-17c0-0.3-0.2-0.5-0.5-0.5H90c-15.7,0-28.4-13-28-28.8
		C62.4,44,75.3,32,90.6,32z"/>
</g>
<g id="Layer_2">
</g>
</svg>
